<?xml version="1.0" ?><svg enable-background="new 0 0 32 32" version="1.1" viewBox="0 0 32 32" xml:space="preserve" xmlns="http://www.w3.org/2000/svg" xmlns:xlink="http://www.w3.org/1999/xlink"><g id="Outline_Color_copy_2"><path d="M28,1c1.654,0,3,1.346,3,3v24c0,1.654-1.346,3-3,3H4c-1.654,0-3-1.346-3-3V4c0-1.654,1.346-3,3-3H28 M28,0H4   C1.8,0,0,1.8,0,4v24c0,2.2,1.8,4,4,4h24c2.2,0,4-1.8,4-4V4C32,1.8,30.2,0,28,0L28,0z"/><path d="M16.816,23.237c-2.936,0.156-4.31-0.507-5.569-1.711c-1.406-1.346-0.841-2.88,0.304-2.958   c1.145-0.078,1.832,1.323,2.443,1.713c0.61,0.389,2.931,1.273,4.158-0.157c1.335-1.556-0.888-2.361-2.518-2.605   c-2.326-0.351-5.265-1.634-5.036-4.164c0.228-2.528,2.106-3.824,4.082-4.007c2.518-0.233,4.158,0.389,5.455,1.517   c1.499,1.304,0.688,2.761-0.267,2.878c-0.952,0.116-2.02-2.144-4.119-2.178c-2.163-0.035-3.625,2.295-0.955,2.957   c2.671,0.662,5.532,0.933,6.562,3.423C22.387,20.436,19.754,23.081,16.816,23.237z M25.096,17.313   c0.055-0.414,0.087-0.836,0.087-1.264c0-5.145-4.133-9.317-9.23-9.317c-0.507,0-1.003,0.043-1.487,0.123   c-0.867-0.573-1.899-0.907-3.009-0.907c-3.043,0-5.508,2.502-5.508,5.589c0,1.123,0.326,2.167,0.887,3.043   c-0.076,0.479-0.115,0.969-0.115,1.468c0,5.146,4.131,9.317,9.23,9.317c0.576,0,1.136-0.057,1.681-0.157   c0.846,0.532,1.843,0.843,2.912,0.843c3.043,0,5.508-2.502,5.508-5.589C26.052,19.295,25.7,18.21,25.096,17.313z"/></g></svg>